PathFileType	4	(X/Y/Z)	Walk9.trc
DataRate	CameraRate	NumFrames	NumMarkers	Units	OrigDataRate	OrigDataStartFrame	OrigNumFrames
200.000000	200.000000	9	59	mm	200.000000	371	528
Frame#	Times		LFHD		RBHD		C7		T10		CLAV		STRN		RBack		LASI		RASI		RPSI		RACR1		RUA1		RElbow		RFA1		RWRR		RWRU		RCAR		LACR1		LUA1		LFA1		LWRR		LCAR		RTH1		RTH3		RTH2		RTH4		RLFC		LTH1		LTH3		LTH2		LTH4		LLFC		LTB1		LTB3		LTB2		LTB4		LLMAL		LMMAL		LMT1		LMT5		LToe		LPSI		RFHD		LElbowM		LElbow		LBHD		RMMAL		LWRU		RTB4		RTB2		RTB1		RTB3		RToe		RCAL		RElbowM		RMT1		RLMAL		RMT5		LCAL
			X1	Y1	Z1	X2	Y2	Z2	X3	Y3	Z3	X4	Y4	Z4	X5	Y5	Z5	X6	Y6	Z6	X7	Y7	Z7	X8	Y8	Z8	X9	Y9	Z9	X10	Y10	Z10	X11	Y11	Z11	X12	Y12	Z12	X13	Y13	Z13	X14	Y14	Z14	X15	Y15	Z15	X16	Y16	Z16	X17	Y17	Z17	X18	Y18	Z18	X19	Y19	Z19	X20	Y20	Z20	X21	Y21	Z21	X22	Y22	Z22	X23	Y23	Z23	X24	Y24	Z24	X25	Y25	Z25	X26	Y26	Z26	X27	Y27	Z27	X28	Y28	Z28	X29	Y29	Z29	X30	Y30	Z30	X31	Y31	Z31	X32	Y32	Z32	X33	Y33	Z33	X34	Y34	Z34	X35	Y35	Z35	X36	Y36	Z36	X37	Y37	Z37	X38	Y38	Z38	X39	Y39	Z39	X40	Y40	Z40	X41	Y41	Z41	X42	Y42	Z42	X43	Y43	Z43	X44	Y44	Z44	X45	Y45	Z45	X46	Y46	Z46	X47	Y47	Z47	X48	Y48	Z48	X49	Y49	Z49	X50	Y50	Z50	X51	Y51	Z51	X52	Y52	Z52	X53	Y53	Z53	X54	Y54	Z54	X55	Y55	Z55	X56	Y56	Z56	X57	Y57	Z57	X58	Y58	Z58	X59	Y59	Z59

371	1.855	300.3	1595.7	-6.1227	143.48	1550.8	111.14	140.7	1422.2	34.454	118.19	1138.4	26.953	268.87	1351.2	17.337	350.99	1129.1	5.3932	109.25	1311.3	128.37	292.71	951.29	-123.34	316.95	957.06	152.32	99.194	983.84	93.031	228.91	1352	194.09	230.42	1138.2	248.13	218.43	1030	269.01	298.61	899.01	261.4	334.61	802.72	217.44	286.39	786.13	271.71	339.19	754.61	264.86	194.03	1369.9	-146.15	171.61	1163.9	-200.58	216.76	927.25	-235.3	249.06	812.76	-199.98	249.28	769.83	-243.37	240.38	750.81	194.99	264.37	568.37	150.84	317.03	677.74	146.11	251.9	659.54	171.76	270.61	463.78	134.35	227.44	740.02	-153.15	289.66	564.51	-133.76	329.27	672.89	-125.74	258.95	648.06	-144.95	299.4	470.86	-124.15	277.95	369.45	-52.831	140.17	241.95	-54.62	187.49	327.51	-123.11	208.31	303.72	-57.821	32.301	186.75	-98.584	58.913	183.61	-19.854	126.97	68.897	-65.46	79.99	78.712	-126.87	150.47	45.113	-94.586	87.201	973.22	-21.189	310.62	1596.8	66.445	141.04	1027.4	-147.29	152.69	1045.1	-217.74	130.82	1559.7	-15.051	197.73	78.361	11.885	197.12	807.65	-250.24	259.94	252.02	49.199	251.67	253.45	120.44	284.09	341.62	54.253	235.76	163.27	43.816	376.4	29.342	80.366	130.96	29.157	41.315	185.22	1010.2	192.97	333.61	39.429	47.507	178.4	62.758	90.265	286.26	20.944	130.39	-20.293	193.31	-40.656
372	1.86	305.75	1596.3	-5.7919	148.87	1551.6	111.46	145.96	1422.9	34.838	123.43	1139.1	27.378	274.09	1351.9	17.736	356.14	1129.9	6.0449	114.49	1312.1	128.85	298.35	952.26	-122.86	322.36	958.07	152.76	104.49	984.53	93.257	234.11	1353	194.5	236.28	1139.2	248.87	225.07	1030.9	269.82	306.58	900.74	261.66	343.58	805.03	217.31	295.65	787.7	271.56	348.86	756.89	264.61	199.24	1370.6	-145.78	176.27	1164.5	-200.05	220.11	927.67	-234.82	251.39	812.85	-199.57	251.24	769.79	-242.9	245.33	751.37	195.08	267.13	568.64	150.98	320.9	677.43	145.82	255.76	659.94	171.77	272.15	463.86	134.53	233.95	741.27	-153.15	297.5	566.24	-133.61	336.18	674.94	-125.53	266.17	649.57	-145.03	307.84	472.34	-123.73	288.33	370.52	-52.371	153.16	240.27	-53.863	198.6	326.73	-122.44	220.02	303.4	-57.213	46.444	182.76	-97.64	73.213	180.16	-18.974	144.24	67.536	-64.979	96.876	76.251	-126.25	168.26	44.281	-94.14	92.579	973.92	-20.962	316.07	1597.4	66.773	145.23	1028.3	-146.69	156.89	1045.9	-217.13	136.24	1560.5	-14.734	197.86	78.627	11.968	199.52	808.25	-249.98	260.61	252.02	49.375	252.26	253.48	120.59	285.09	341.54	54.466	236.14	163.37	43.95	376.35	29.318	80.471	130.98	29.482	41.313	191.87	1010.9	193.88	333.58	39.488	47.609	178.44	63.009	90.312	286.25	20.923	130.44	-6.3521	187.85	-39.602
373	1.865	311.2	1596.9	-5.4803	154.26	1552.4	111.76	151.21	1423.6	35.196	128.67	1139.7	27.777	279.31	1352.5	18.12	361.3	1130.7	6.7075	119.72	1312.8	129.29	304	953.14	-122.35	327.77	958.99	153.11	109.77	985.18	93.476	239.29	1353.8	194.88	242.1	1140.2	249.61	231.67	1031.8	270.61	314.51	902.45	261.93	352.51	807.34	217.18	304.88	789.26	271.4	358.49	759.17	264.34	204.45	1371.3	-145.42	180.92	1165.1	-199.54	223.46	928.05	-234.36	253.73	812.91	-199.19	253.2	769.74	-242.45	250.22	751.91	195.16	269.87	568.9	151.11	324.76	677.1	145.56	259.59	660.31	171.75	273.71	463.94	134.71	240.43	742.48	-153.18	305.27	567.92	-133.47	343.02	676.93	-125.29	273.33	651.03	-145.12	316.17	473.76	-123.31	298.65	371.55	-51.904	166.23	238.49	-53.115	209.73	325.84	-121.77	231.74	303.01	-56.606	60.762	178.62	-96.716	87.687	176.59	-18.118	161.66	66.152	-64.56	113.93	73.732	-125.68	186.21	43.45	-93.756	97.943	974.58	-20.743	321.5	1598	67.082	149.41	1029.2	-146.1	161.08	1046.7	-216.54	141.65	1561.3	-14.438	197.99	78.903	12.054	201.93	808.81	-249.72	261.29	252.02	49.553	252.86	253.51	120.75	286.11	341.45	54.677	236.53	163.48	44.085	376.31	29.292	80.574	130.99	29.823	41.322	198.57	1011.6	194.73	333.56	39.547	47.712	178.47	63.27	90.364	286.24	20.902	130.5	7.8229	182.2	-38.565
374	1.87	316.63	1597.4	-5.1874	159.63	1553.1	112.05	156.45	1424.3	35.529	133.9	1140.3	28.151	284.51	1353.1	18.487	366.48	1131.4	7.376	124.94	1313.5	129.72	309.65	953.95	-121.8	333.19	959.81	153.38	115.04	985.79	93.686	244.47	1354.6	195.24	247.9	1141.1	250.34	238.24	1032.7	271.39	322.4	904.13	262.2	361.4	809.64	217.05	314.1	790.8	271.22	368.07	761.43	264.06	209.66	1371.8	-145.08	185.56	1165.7	-199.05	226.82	928.39	-233.9	256.1	812.94	-198.83	255.18	769.68	-242.03	255.04	752.42	195.24	272.61	569.14	151.24	328.6	676.75	145.34	263.38	660.65	171.72	275.3	464.02	134.89	246.87	743.65	-153.23	312.95	569.54	-133.32	349.79	678.84	-125.01	280.41	652.44	-145.22	324.37	475.09	-122.89	308.89	372.52	-51.431	179.39	236.62	-52.378	220.88	324.85	-121.11	243.48	302.55	-56.004	75.256	174.35	-95.813	102.34	172.89	-17.29	179.23	64.752	-64.212	131.14	71.168	-125.16	204.29	42.632	-93.452	103.29	975.2	-20.534	326.92	1598.5	67.373	153.58	1029.9	-145.53	165.26	1047.4	-215.97	147.05	1562	-14.161	198.12	79.188	12.142	204.33	809.33	-249.44	261.99	252.03	49.73	253.49	253.55	120.91	287.15	341.37	54.885	236.93	163.59	44.221	376.28	29.263	80.676	131	30.181	41.338	205.33	1012.2	195.53	333.53	39.602	47.815	178.51	63.541	90.421	286.23	20.884	130.56	22.24	176.38	-37.542
375	1.875	322.05	1597.8	-4.9129	164.99	1553.8	112.31	161.67	1424.9	35.838	139.13	1140.9	28.502	289.71	1353.7	18.838	371.67	1132.1	8.0453	130.15	1314.2	130.11	315.3	954.68	-121.22	338.6	960.53	153.59	120.31	986.36	93.886	249.63	1355.4	195.59	253.68	1142	251.06	244.77	1033.5	272.16	330.24	905.78	262.48	370.26	811.93	216.92	323.29	792.33	271.03	377.6	763.67	263.75	214.87	1372.3	-144.76	190.18	1166.2	-198.59	230.17	928.69	-233.46	258.5	812.94	-198.48	257.17	769.61	-241.63	259.77	752.88	195.31	275.34	569.35	151.35	332.42	676.39	145.16	267.12	660.95	171.66	276.92	464.09	135.06	253.27	744.77	-153.29	320.54	571.12	-133.18	356.49	680.69	-124.69	287.43	653.8	-145.33	332.44	476.35	-122.47	319.06	373.43	-50.959	192.63	234.66	-51.655	232.04	323.75	-120.44	255.23	302.02	-55.409	89.926	169.96	-94.932	117.18	169.08	-16.491	196.94	63.348	-63.945	148.49	68.574	-124.7	222.5	41.841	-93.242	108.63	975.76	-20.334	332.34	1599	67.645	157.75	1030.7	-144.99	169.44	1048	-215.42	152.43	1562.6	-13.904	198.26	79.48	12.23	206.74	809.8	-249.17	262.71	252.04	49.903	254.14	253.59	121.06	288.23	341.28	55.089	237.33	163.7	44.356	376.25	29.232	80.776	131.02	30.556	41.361	212.15	1012.8	196.27	333.51	39.655	47.918	178.55	63.822	90.48	286.22	20.868	130.61	36.905	170.41	-36.532
376	1.88	327.46	1598.3	-4.6564	170.34	1554.5	112.56	166.89	1425.5	36.122	144.35	1141.4	28.83	294.91	1354.2	19.172	376.87	1132.8	8.7104	135.35	1314.7	130.48	320.95	955.35	-120.64	344.01	961.14	153.72	125.57	986.87	94.076	254.78	1356.1	195.91	259.45	1142.9	251.76	251.28	1034.3	272.92	338.05	907.39	262.77	379.07	814.2	216.78	332.44	793.83	270.83	387.07	765.89	263.44	220.08	1372.8	-144.46	194.79	1166.7	-198.15	233.53	928.94	-233.03	260.92	812.91	-198.15	259.17	769.51	-241.26	264.41	753.29	195.38	278.09	569.54	151.47	336.21	676.03	145.02	270.82	661.21	171.59	278.58	464.16	135.23	259.63	745.84	-153.38	328.03	572.62	-133.04	363.12	682.45	-124.35	294.38	655.1	-145.44	340.38	477.51	-122.05	329.15	374.28	-50.49	205.96	232.63	-50.951	243.21	322.56	-119.79	266.99	301.42	-54.825	104.77	165.46	-94.074	132.21	165.17	-15.723	214.78	61.951	-63.764	165.99	65.963	-124.3	240.83	41.091	-93.136	113.97	976.28	-20.146	337.75	1599.4	67.9	161.91	1031.4	-144.47	173.61	1048.6	-214.88	157.81	1563.2	-13.665	198.41	79.777	12.317	209.16	810.23	-248.89	263.46	252.04	50.072	254.81	253.63	121.21	289.34	341.18	55.286	237.74	163.82	44.488	376.22	29.198	80.874	131.04	30.948	41.387	219.01	1013.3	196.96	333.48	39.704	48.019	178.61	64.113	90.542	286.21	20.855	130.67	51.824	164.3	-35.534
377	1.885	332.86	1598.6	-4.4176	175.68	1555	112.79	172.11	1426	36.382	149.58	1141.9	29.138	300.1	1354.7	19.49	382.08	1133.4	9.3663	140.54	1315.3	130.82	326.58	955.95	-120.04	349.4	961.64	153.8	130.82	987.34	94.254	259.92	1356.8	196.22	265.2	1143.6	252.45	257.76	1035	273.65	345.81	908.97	263.06	387.83	816.45	216.64	341.55	795.3	270.63	396.49	768.09	263.11	225.3	1373.2	-144.18	199.39	1167.1	-197.74	236.89	929.14	-232.62	263.37	812.85	-197.84	261.2	769.39	-240.9	268.96	753.65	195.45	280.85	569.7	151.57	339.97	675.66	144.91	274.48	661.42	171.52	280.29	464.21	135.4	265.94	746.86	-153.47	335.42	574.06	-132.9	369.68	684.12	-123.98	301.26	656.34	-145.56	348.18	478.59	-121.64	339.16	375.06	-50.029	219.38	230.53	-50.269	254.39	321.27	-119.14	278.77	300.75	-54.257	119.8	160.88	-93.241	147.43	161.18	-14.99	232.75	60.572	-63.676	183.61	63.348	-123.97	259.26	40.396	-93.143	119.29	976.76	-19.971	343.15	1599.8	68.137	166.07	1032	-143.96	177.78	1049.2	-214.37	163.18	1563.8	-13.444	198.57	80.079	12.4	211.59	810.62	-248.6	264.24	252.04	50.232	255.52	253.66	121.36	290.48	341.08	55.474	238.16	163.93	44.616	376.21	29.161	80.97	131.06	31.355	41.414	225.93	1013.8	197.59	333.46	39.747	48.117	178.67	64.413	90.604	286.21	20.845	130.73	67	158.08	-34.547
378	1.89	338.25	1599	-4.196	181.02	1555.6	113	177.32	1426.5	36.619	154.8	1142.2	29.425	305.29	1355.1	19.79	387.31	1133.9	10.009	145.72	1315.8	131.14	332.19	956.48	-119.45	354.78	962.04	153.82	136.06	987.76	94.417	265.06	1357.4	196.51	270.94	1144.4	253.11	264.23	1035.7	274.36	353.54	910.51	263.35	396.55	818.68	216.51	350.62	796.75	270.41	405.85	770.25	262.76	230.51	1373.5	-143.91	203.99	1167.5	-197.35	240.26	929.3	-232.21	265.85	812.75	-197.54	263.24	769.25	-240.57	273.43	753.95	195.51	283.63	569.83	151.66	343.7	675.28	144.84	278.1	661.59	171.43	282.04	464.25	135.55	272.21	747.81	-153.58	342.7	575.42	-132.77	376.18	685.69	-123.59	308.06	657.51	-145.68	355.85	479.56	-121.23	349.09	375.77	-49.583	232.89	228.36	-49.613	265.57	319.9	-118.51	290.55	300.01	-53.709	135	156.23	-92.435	162.84	157.11	-14.293	250.84	59.224	-63.68	201.35	60.742	-123.72	277.79	39.771	-93.267	124.61	977.18	-19.811	348.54	1600.1	68.356	170.23	1032.5	-143.48	181.94	1049.7	-213.87	168.55	1564.3	-13.239	198.73	80.384	12.479	214.03	810.95	-248.31	265.05	252.03	50.383	256.26	253.7	121.5	291.67	340.97	55.653	238.6	164.04	44.737	376.2	29.122	81.064	131.08	31.776	41.441	232.88	1014.2	198.16	333.45	39.786	48.212	178.74	64.719	90.666	286.21	20.839	130.8	82.434	151.76	-33.575
379	1.895	343.63	1599.2	-3.9915	186.35	1556	113.19	182.52	1426.9	36.835	160.03	1142.6	29.693	310.48	1355.5	20.073	392.54	1134.4	10.633	150.89	1316.2	131.43	337.79	956.95	-118.86	360.15	962.33	153.81	141.29	988.12	94.565	270.19	1358	196.78	276.68	1145.1	253.75	270.67	1036.3	275.05	361.22	912	263.64	405.23	820.87	216.37	359.65	798.17	270.19	415.15	772.39	262.41	235.72	1373.8	-143.66	208.58	1167.8	-196.98	243.63	929.4	-231.83	268.36	812.61	-197.26	265.31	769.08	-240.26	277.8	754.19	195.56	286.45	569.93	151.74	347.4	674.91	144.79	281.69	661.69	171.36	283.85	464.27	135.69	278.43	748.7	-153.7	349.87	576.69	-132.65	382.6	687.15	-123.18	314.78	658.61	-145.8	363.37	480.43	-120.82	358.94	376.41	-49.155	246.49	226.14	-48.989	276.74	318.44	-117.89	302.34	299.22	-53.186	150.38	151.52	-91.659	178.44	153	-13.635	269.04	57.92	-63.777	219.21	58.158	-123.53	296.4	39.228	-93.51	129.93	977.55	-19.668	353.93	1600.4	68.559	174.38	1033.1	-143.03	186.11	1050.1	-213.39	173.9	1564.7	-13.051	198.9	80.69	12.55	216.48	811.23	-248.02	265.89	252.02	50.523	257.03	253.73	121.64	292.9	340.85	55.821	239.06	164.14	44.849	376.19	29.08	81.156	131.11	32.21	41.467	239.86	1014.6	198.69	333.43	39.818	48.301	178.82	65.032	90.726	286.21	20.835	130.86	98.127	145.37	-32.618
